<?xml version="1.0" encoding="UTF-8" standalone="no"?>
<svg
   viewBox="0 0 507.27 507.27"
   version="1.1"
   id="svg28"
   sodipodi:docname="big-favicon-new-sem-fundo.svg"
   inkscape:version="1.2.2 (b0a8486541, 2022-12-01)"
   xmlns:inkscape="http://www.inkscape.org/namespaces/inkscape"
   xmlns:sodipodi="http://sodipodi.sourceforge.net/DTD/sodipodi-0.dtd"
   xmlns:xlink="http://www.w3.org/1999/xlink"
   xmlns="http://www.w3.org/2000/svg"
   xmlns:svg="http://www.w3.org/2000/svg">
  <sodipodi:namedview
     id="namedview30"
     pagecolor="#ffffff"
     bordercolor="#666666"
     borderopacity="1.0"
     inkscape:showpageshadow="2"
     inkscape:pageopacity="0.0"
     inkscape:pagecheckerboard="0"
     inkscape:deskcolor="#d1d1d1"
     showgrid="false"
     inkscape:zoom="1.4607606"
     inkscape:cx="92.759897"
     inkscape:cy="253.29271"
     inkscape:window-width="1224"
     inkscape:window-height="994"
     inkscape:window-x="56"
     inkscape:window-y="30"
     inkscape:window-maximized="1"
     inkscape:current-layer="svg28" />
  <defs
     id="defs11">
    <style
       id="style2">.cls-1{fill:#16171c;stroke:#000;stroke-miterlimit:10;}.cls-2{fill:#2c2d3d;}.cls-3{fill:url(#linear-gradient);}.cls-4{fill:url(#linear-gradient-2);}.cls-5{fill:url(#linear-gradient-3);}</style>
    <linearGradient
       id="linear-gradient"
       x1="70.74"
       y1="207.69"
       x2="304.39"
       y2="456.44"
       gradientTransform="matrix(1, 0, 0, -1, 16.81, 529.63)"
       gradientUnits="userSpaceOnUse">
      <stop
         offset="0"
         stop-color="#2d85c6"
         id="stop4" />
      <stop
         offset="1"
         stop-color="#04bacc"
         id="stop6" />
    </linearGradient>
    <linearGradient
       id="linear-gradient-2"
       x1="146.39"
       y1="136.63"
       x2="380.04"
       y2="385.38"
       xlink:href="#linear-gradient"
       gradientTransform="translate(-2.37,-2.37)" />
    <linearGradient
       id="linear-gradient-3"
       x1="127.32"
       y1="154.54"
       x2="360.97"
       y2="403.29"
       xlink:href="#linear-gradient"
       gradientTransform="translate(-2.37,-2.37)" />
    <linearGradient
       inkscape:collect="always"
       xlink:href="#linear-gradient"
       id="linearGradient140"
       gradientUnits="userSpaceOnUse"
       gradientTransform="matrix(1,0,0,-1,14.44,527.26)"
       x1="70.74"
       y1="207.69"
       x2="304.39"
       y2="456.44" />
  </defs>
  <path
     class="cls-3"
     d="m 228.43,197.84 c 6.81,0.39 13.2,-2.31 19.26,-5.17 7.88,-4.18 15.31,-10.43 18.92,-18.79 a 23.4,23.4 0 0 0 1.3,-19.94 c -1.85,-5.51 -6.74,-9.09 -10.85,-12.89 -7.86,-4.81 -17.43,-7.71 -26.67,-6.16 -5.47,-0.31 -10.61,1.27 -15.5,3.21 a 46.51,46.51 0 0 0 -23,19.08 c -2.7,5.86 -5.64,12.69 -2.93,19.08 2.3,8.91 9.75,15.53 18.08,18.93 6.75,2.44 14.16,3.96 21.39,2.65 z"
     id="path21"
     style="fill:url(#linearGradient140)" />
  <path
     class="cls-4"
     d="m 309.16,299.84 c -13.53,-13.06 -26.28,-28.21 -31.11,-46.68 -2.29,-8.81 -2,-18.05 -2.71,-27.13 -2.45,-7.35 -7.43,-14.49 -15.21,-17.06 -5,-2.85 -10.87,-3.29 -16.44,-4.2 -10.88,0.29 -22.19,5.36 -27.58,15.25 -2.16,4.14 -2.79,8.94 -3.35,13.53 0.69,12.65 6.17,24.61 12.67,35.38 6,9.1 13.16,17.61 21.94,24.31 5,5.19 11.61,8.26 17.65,12.05 a 104,104 0 0 0 35.74,12.71 204.8,204.8 0 0 0 31.15,3.47 c -6.71,-8.21 -16,-13.66 -22.75,-21.63 z"
     id="path23"
     style="fill:url(#linear-gradient-2)" />
  <path
     class="cls-5"
     d="M 253.63,0 C 113.55,0 0,113.56 0,253.63 0,393.7 113.55,507.26 253.63,507.26 393.71,507.26 507.26,393.71 507.26,253.63 507.26,113.55 393.7,0 253.63,0 Z M 51.78,351.44 c -6.81,-5.29 -11.54,-12.76 -16.4,-19.82 a 39.89,39.89 0 0 1 -3.23,-6 230.85,230.85 0 0 1 -9.24,-38.87 78.89,78.89 0 0 0 9.35,16 34.33,34.33 0 0 0 23.48,13.81 c 7.74,0.44 15.22,-2.45 21.88,-6 8.46,-5.6 16.63,-11.68 23.68,-19 3.79,-3 6.47,-7.1 10.34,-10.21 6.87,-6.56 12.25,-14.7 19.6,-20.85 5.9,-6.81 12.28,-13.29 19.59,-18.4 2.82,-1.49 6,-2.92 9.11,-2.34 4.78,2.37 3.85,8.34 5.67,12.53 0.64,6.33 0.78,12.65 1.34,19 -1.06,16.22 -4.67,32.55 -12.61,46.75 -2.21,5.08 -5.78,9.36 -8.45,14.18 -2.83,3.75 -6.38,7 -9.33,10.77 -9.83,9.6 -21.58,18.11 -35.28,21.13 -4.66,2 -9.82,1.13 -14.69,1.85 A 51,51 0 0 1 51.78,351.44 Z m 412.54,-7.18 a 69.06,69.06 0 0 1 -1.5,7.71 C 408.03,467.96 269.63,517.63 153.63,462.8 a 232.11,232.11 0 0 1 -68,-48.83 69.34,69.34 0 0 0 14.41,2.82 l 20.13,-1.23 c 20.31,-3.81 38.75,-15.07 52.9,-29.9 3.54,-2.64 6,-6.22 8.47,-9.79 6.33,-6.78 10.64,-15.16 15.45,-23.12 8.27,-17.63 14.66,-36.78 14.46,-56.35 1.22,-4.9 0.06,-10 -1,-14.86 -2,-16 -9.78,-30.94 -20.73,-42.69 -4.2,-4.92 -9.85,-8.16 -15.07,-11.88 -11.73,-6.62 -24.44,-13 -38.13,-13.63 -10,-1.8 -19.76,2.79 -28,8 -5.76,3.42 -10,8.72 -15,13 -5.33,6.2 -10.89,12.35 -17.89,16.78 a 77,77 0 0 1 -9,2.73 c -4,-0.75 -8.17,-1.8 -11.2,-4.67 -2.92,-2.16 -4.21,-5.61 -6.14,-8.56 -3,-4.8 -4.61,-10.47 -6,-15.94 -2.61,-7.64 -2.76,-15.89 -4.69,-23.73 -0.09,-7.85 -1.62,-15.77 -0.37,-23.54 -0.55,-5.12 0.24,-10.15 0.72,-15.24 a 7.94,7.94 0 0 1 0.16,-1 C 74.63,78.46 156.91,20.42 252.74,20.42 A 231.67,231.67 0 0 1 422.51,94.26 67.92,67.92 0 0 0 403.3,89.75 l -20.12,1.22 c -20.3,3.81 -38.74,15.07 -52.91,29.91 -3.54,2.63 -6,6.22 -8.47,9.79 -6.32,6.78 -10.64,15.17 -15.43,23.12 -8.29,17.63 -14.68,36.78 -14.47,56.36 -1.22,4.9 0,10 1,14.85 2,16 9.78,31 20.74,42.71 4.19,4.91 9.84,8.14 15.06,11.88 11.73,6.6 24.44,13 38.14,13.63 10,1.79 19.75,-2.8 28,-8.06 5.76,-3.41 10,-8.71 15,-13 5.29,-6.2 10.91,-12.35 17.82,-16.78 a 72.9,72.9 0 0 1 9,-2.74 c 4,0.76 8.16,1.8 11.2,4.65 2.92,2.18 4.21,5.64 6.14,8.58 3,4.8 4.61,10.46 6,15.94 2.6,7.63 2.76,15.88 4.69,23.73 0.09,7.86 1.62,15.77 0.37,23.53 0.57,5.08 -0.26,10.12 -0.74,15.19 z M 447.57,189.98 c -7.73,-0.44 -15.22,2.44 -21.87,6 -8.46,5.6 -16.64,11.67 -23.69,19 -3.79,3 -6.47,7.11 -10.34,10.21 -6.87,6.57 -12.24,14.72 -19.59,20.85 -5.91,6.82 -12.28,13.3 -19.6,18.4 -2.81,1.5 -5.94,2.94 -9.11,2.35 -4.78,-2.37 -3.84,-8.35 -5.67,-12.54 -0.65,-6.32 -0.79,-12.63 -1.34,-19 1.06,-16.21 4.66,-32.54 12.6,-46.74 2.21,-5.08 5.79,-9.36 8.45,-14.19 2.85,-3.75 6.39,-7 9.33,-10.75 9.83,-9.62 21.59,-18.12 35.28,-21.14 4.67,-2 9.82,-1.14 14.71,-1.85 a 51,51 0 0 1 34.8,14.49 c 6.82,5.31 11.54,12.78 16.39,19.83 3.36,4.9 4.81,11.14 8.67,15.72 a 232.73,232.73 0 0 1 7.17,37.64 87.76,87.76 0 0 0 -12.73,-24.42 34.33,34.33 0 0 0 -23.46,-13.86 z"
     id="path25"
     style="fill:url(#linear-gradient-3)"
     inkscape:export-filename="a-path25.svg"
     inkscape:export-xdpi="96"
     inkscape:export-ydpi="96" />
</svg>
